<svg version="1" xmlns="http://www.w3.org/2000/svg" width="1066.667" height="1066.667" viewBox="0 0 800.000000 800.000000"><path d="M361 60v60H120v59h84.6l6.6 5.4c3.6 3 12.1 10.7 18.9 17.2 12.2 11.6 12.9 12.1 28.4 19.9 11.4 5.7 19.4 10.6 28 17 10.2 7.6 13.6 9.6 22.5 12.9 5.8 2.1 12.6 4.9 15.2 6.2l4.6 2.3 6 18.3c4.1 12.4 7.1 23.8 9.2 35.3 1.8 9.3 4.1 20.7 5.2 25.3l2.1 8.3-3.8 14.2c-2.1 7.8-5.5 17.6-7.5 21.7-2.1 4.1-4.8 11.9-6 17.4-3.4 15.2-2.4 24.2 10.5 87.4 8.9 43.3 10.7 57.5 10.4 81.2-.1 13.2.2 19.1 1.4 24.2.9 3.6 2.8 13 4.2 20.7 2.5 13.8 2.5 14.8 1.9 43.6l-.7 29.5H352v26c0 24.6.1 26.2 2.3 31.5 2 5.1 2.4 5.5 5.5 5.5h3.2v9.2c0 5.1.3 16.4.7 25l.6 15.8h58l-.7-25-.7-25h3.9c3.4 0 4.2-.5 7.1-4.5l3.2-4.4-.7-27.1-.7-27H425v-48l3.9-18.8 4-18.9-.9-18.4c-.5-10.1-1.4-21.6-2-25.4-1.9-12.3-.4-24.6 5.5-46l5.3-19 1.1-31.5c1.1-31 1.1-31.7-1.3-48.5-1.4-9.4-3.4-21-4.5-25.8-3.4-14.3-2.9-25.7 2-47.8 2.2-10.1 5.1-26.5 6.5-36.4 2.8-20.4 6.6-37.4 9.9-45l2.3-5.1 14-5.1c13.2-4.8 14.9-5.8 27.4-15.2 10.9-8.1 15.1-10.6 23.3-13.8 13.2-5.1 36.9-21 47.5-31.7l7.4-7.6H680v-59H423V0h-62v60zm-7.6 121.2c-2 6.3-3.4 12.6-3.4 15.5 0 1.7-1.3 6.1-3 9.8-1.6 3.7-3 8.1-3 9.8 0 1.8-.3 4.9-.6 6.9l-.6 3.7-6.7-2.5c-3.6-1.4-10.5-3.4-15.2-4.4-4.7-1.1-10.7-2.8-13.3-4-2.6-1.1-10.9-4.3-18.4-7.1-18.7-6.9-22.5-9.2-29.3-17.3-3.2-3.8-7.7-8-9.9-9.3-2.2-1.3-4-2.6-4-2.9 0-.2 24.3-.4 54.1-.4h54l-.7 2.2zm177.1-1.3c-5 4.5-26.7 17.3-42.5 24.9-10.7 5.2-20.5 10.4-21.8 11.5-1.9 1.8-4.6 2.3-15.6 3.3-13.2 1.1-13.4 1.2-19.4 5.3-3.3 2.2-6.7 3.8-7.5 3.5-1.4-.5-2.7-19-2.7-40.1V179h55.2c31.3 0 54.8.4 54.3.9z"/></svg>